# xmcd
#
# Track frame offsets: 
#        150
#        28984
#        55861
#        88144
#        90419
#        119375
#        149774
#        153678
#        181906
#        197334
#        224026
#        268366
#
# Disc length: 4004 seconds
#
# Revision: 0
# Processed by: cddbd v1.5.2PL0 Copyright (c) Steve Scherf et al.
# Submitted via: ExactAudioCopy v0.95b4
#
DISCID=ba0fa20c
DTITLE=Rock This House - Live! - Katherine Davis
DYEAR=2006
DGENRE=Blues
TTITLE0=Watermelon Man
TTITLE1=Rock This House
TTITLE2=Sweet Lotus Blossum
TTITLE3=Spoken intro - Too Many for Me
TTITLE4=Need a Little Sugar in my Bowl
TTITLE5=Going Fishing
TTITLE6=Spoken introduction - EH Way
TTITLE7=Make a Pallet on the Floor
TTITLE8=You Got to Know How
TTITLE9=Way Back Home
TTITLE10=Never Make a Move Too Soon
TTITLE11=Romance in the Dark
EXTD=
EXTT0=
EXTT1=
EXTT2=
EXTT3=
EXTT4=
EXTT5=
EXTT6=
EXTT7=
EXTT8=
EXTT9=
EXTT10=
EXTT11=
PLAYORDER=
